<?xml version="1.0" encoding="UTF-8" standalone="no"?>
<!DOCTYPE svg PUBLIC "-//W3C//DTD SVG 1.1//EN" "http://www.w3.org/Graphics/SVG/1.1/DTD/svg11.dtd">
<svg width="100%" height="100%" viewBox="0 0 100 100" version="1.1" xmlns="http://www.w3.org/2000/svg" xmlns:xlink="http://www.w3.org/1999/xlink" xml:space="preserve" xmlns:serif="http://www.serif.com/" style="fill-rule:evenodd;clip-rule:evenodd;stroke-linejoin:round;stroke-miterlimit:2;">
    <g>
        <path d="M16.602,45.398L45.301,16.699L37.102,8.5C29.203,0.601 16.301,0.601 8.403,8.5C0.504,16.398 0.504,29.301 8.403,37.199L16.602,45.398Z" style="fill:rgb(176,0,0);fill-rule:nonzero;"/>
        <path d="M83.398,54.602L54.601,83.399L62.8,91.598C66.8,95.598 71.999,97.497 77.198,97.497C82.397,97.497 87.596,95.497 91.596,91.598C99.495,83.7 99.495,70.797 91.596,62.899L83.398,54.602Z" style="fill:rgb(176,0,0);fill-rule:nonzero;"/>
        <path d="M91.5,8.5C83.602,0.602 70.699,0.602 62.801,8.5L8.5,62.801C0.602,70.699 0.602,83.602 8.5,91.5C16.398,99.398 29.301,99.398 37.199,91.5L91.597,37.102C99.499,29.301 99.499,16.399 91.499,8.5L91.5,8.5ZM39.199,51L37.199,53C36.699,53.5 35.801,53.5 35.301,53L33.301,51C32.801,50.5 32.801,49.602 33.301,49.102L35.301,47.102C35.801,46.602 36.699,46.602 37.199,47.102L39.199,49.102C39.699,49.602 39.699,50.399 39.199,51ZM46.101,57.801L44.101,59.801C43.601,60.301 42.703,60.301 42.203,59.801L40.203,57.801C39.703,57.301 39.703,56.402 40.203,55.902L42.203,53.902C42.703,53.402 43.601,53.402 44.101,53.902L46.101,55.902C46.601,56.398 46.601,57.301 46.101,57.801ZM46.101,44.102L44.101,46.102C43.601,46.602 42.703,46.602 42.203,46.102L40.203,44.102C39.703,43.602 39.703,42.703 40.203,42.203L42.203,40.203C42.703,39.703 43.601,39.703 44.101,40.203L46.101,42.203C46.601,42.699 46.601,43.602 46.101,44.102ZM53,64.7L51,66.7C50.5,67.2 49.601,67.2 49.101,66.7L47.101,64.7C46.601,64.2 46.601,63.301 47.101,62.801L49.101,60.801C49.601,60.301 50.5,60.301 51,60.801L53,62.801C53.5,63.301 53.5,64.2 53,64.7ZM53,51.001L51,53.001C50.5,53.501 49.601,53.501 49.101,53.001L47.101,51.001C46.601,50.501 46.601,49.602 47.101,49.102L49.101,47.102C49.601,46.602 50.5,46.602 51,47.102L53,49.102C53.5,49.602 53.5,50.399 53,51.001ZM53,37.2L51,39.2C50.5,39.7 49.601,39.7 49.101,39.2L47.101,37.2C46.601,36.7 46.601,35.801 47.101,35.301L49.101,33.301C49.601,32.801 50.5,32.801 51,33.301L53,35.301C53.5,35.801 53.5,36.7 53,37.2ZM59.801,57.802L57.801,59.802C57.301,60.302 56.402,60.302 55.902,59.802L53.902,57.802C53.402,57.302 53.402,56.403 53.902,55.903L55.902,53.903C56.402,53.403 57.301,53.403 57.801,53.903L59.801,55.903C60.398,56.399 60.398,57.302 59.801,57.802ZM59.801,44.103L57.801,46.103C57.301,46.603 56.402,46.603 55.902,46.103L53.902,44.103C53.402,43.603 53.402,42.704 53.902,42.204L55.902,40.204C56.402,39.704 57.301,39.704 57.801,40.204L59.801,42.204C60.398,42.7 60.398,43.603 59.801,44.103ZM66.699,51.001L64.699,53.001C64.199,53.501 63.3,53.501 62.8,53.001L60.8,51.001C60.3,50.501 60.3,49.603 60.8,49.103L62.8,47.103C63.3,46.603 64.199,46.603 64.699,47.103L66.699,49.103C67.3,49.603 67.3,50.4 66.699,51.001Z" style="fill:rgb(176,0,0);fill-rule:nonzero;"/>
    </g>
</svg>
